<?xml version="1.0" encoding="utf-8"?> <svg xmlns="http://www.w3.org/2000/svg" xmlns:xlink="http://www.w3.org/1999/xlink"> <symbol viewBox="0 0 16 16" class="bi bi-book" fill="currentColor" id="book" xmlns="http://www.w3.org/2000/svg"><path fill-rule="evenodd" d="M3.214 1.072C4.813.752 6.916.71 8.354 2.146A.5.5 0 018.5 2.5v11a.5.5 0 01-.854.354c-.843-.844-2.115-1.059-3.47-.92-1.344.14-2.66.617-3.452 1.013A.5.5 0 010 13.5v-11a.5.5 0 01.276-.447L.5 2.5l-.224-.447.002-.001.004-.002.013-.006a5.017 5.017 0 01.22-.103 12.958 12.958 0 012.7-.869zM1 2.82v9.908c.846-.343 1.944-.672 3.074-.788 1.143-.118 2.387-.023 3.426.56V2.718c-1.063-.929-2.631-.956-4.09-.664A11.958 11.958 0 001 2.82z"/><path fill-rule="evenodd" d="M12.786 1.072C11.188.752 9.084.71 7.646 2.146A.5.5 0 007.5 2.5v11a.5.5 0 00.854.354c.843-.844 2.115-1.059 3.47-.92 1.344.14 2.66.617 3.452 1.013A.5.5 0 0016 13.5v-11a.5.5 0 00-.276-.447L15.5 2.5l.224-.447-.002-.001-.004-.002-.013-.006-.047-.023a12.582 12.582 0 00-.799-.34 12.96 12.96 0 00-2.073-.609zM15 2.82v9.908c-.846-.343-1.944-.672-3.074-.788-1.143-.118-2.387-.023-3.426.56V2.718c1.063-.929 2.631-.956 4.09-.664A11.956 11.956 0 0115 2.82z"/></symbol> <symbol viewBox="0 0 16 16" class="bi bi-book-fill" fill="currentColor" id="book-fill" xmlns="http://www.w3.org/2000/svg"><path d="M15.261 13.666c.345.14.739-.105.739-.477V2.5a.472.472 0 00-.277-.437c-1.126-.503-5.42-2.19-7.723.129C5.696-.125 1.403 1.56.277 2.063A.472.472 0 000 2.502V13.19c0 .372.394.618.739.477C2.738 12.852 6.125 12.113 8 14c1.875-1.887 5.262-1.148 7.261-.334z"/></symbol> <symbol viewBox="0 0 16 16" class="bi bi-book-half" fill="currentColor" id="book-half" xmlns="http://www.w3.org/2000/svg"><path fill-rule="evenodd" d="M12.786 1.072C11.188.752 9.084.71 7.646 2.146A.5.5 0 007.5 2.5v11a.5.5 0 00.854.354c.843-.844 2.115-1.059 3.47-.92 1.344.14 2.66.617 3.452 1.013A.5.5 0 0016 13.5v-11a.5.5 0 00-.276-.447L15.5 2.5l.224-.447-.002-.001-.004-.002-.013-.006-.047-.023a12.582 12.582 0 00-.799-.34 12.96 12.96 0 00-2.073-.609zM15 2.82v9.908c-.846-.343-1.944-.672-3.074-.788-1.143-.118-2.387-.023-3.426.56V2.718c1.063-.929 2.631-.956 4.09-.664A11.956 11.956 0 0115 2.82z"/><path fill-rule="evenodd" d="M3.214 1.072C4.813.752 6.916.71 8.354 2.146A.5.5 0 018.5 2.5v11a.5.5 0 01-.854.354c-.843-.844-2.115-1.059-3.47-.92-1.344.14-2.66.617-3.452 1.013A.5.5 0 010 13.5v-11a.5.5 0 01.276-.447L.5 2.5l-.224-.447.002-.001.004-.002.013-.006a5.017 5.017 0 01.22-.103 12.958 12.958 0 012.7-.869z"/></symbol> <symbol viewBox="0 0 16 16" class="bi bi-bookmark" fill="currentColor" id="bookmark" xmlns="http://www.w3.org/2000/svg"><path fill-rule="evenodd" d="M8 12l5 3V3a2 2 0 00-2-2H5a2 2 0 00-2 2v12l5-3zm-4 1.234l4-2.4 4 2.4V3a1 1 0 00-1-1H5a1 1 0 00-1 1v10.234z"/></symbol> <symbol viewBox="0 0 16 16" class="bi bi-bookmark-check" fill="currentColor" id="bookmark-check" xmlns="http://www.w3.org/2000/svg"><path fill-rule="evenodd" d="M4.5 2a.5.5 0 00-.5.5v11.066l4-2.667 4 2.667V8.5a.5.5 0 011 0v6.934l-5-3.333-5 3.333V2.5A1.5 1.5 0 014.5 1h4a.5.5 0 010 1h-4z"/><path fill-rule="evenodd" d="M15.854 2.146a.5.5 0 010 .708l-3 3a.5.5 0 01-.708 0l-1.5-1.5a.5.5 0 01.708-.708L12.5 4.793l2.646-2.647a.5.5 0 01.708 0z"/></symbol> <symbol viewBox="0 0 16 16" class="bi bi-bookmark-dash" fill="currentColor" id="bookmark-dash" xmlns="http://www.w3.org/2000/svg"><path fill-rule="evenodd" d="M11 3.5a.5.5 0 01.5-.5h4a.5.5 0 010 1h-4a.5.5 0 01-.5-.5zM4.5 2a.5.5 0 00-.5.5v11.066l4-2.667 4 2.667V8.5a.5.5 0 011 0v6.934l-5-3.333-5 3.333V2.5A1.5 1.5 0 014.5 1h4a.5.5 0 010 1h-4z"/></symbol> <symbol viewBox="0 0 16 16" class="bi bi-bookmark-fill" fill="currentColor" id="bookmark-fill" xmlns="http://www.w3.org/2000/svg"><path fill-rule="evenodd" d="M3 3a2 2 0 012-2h6a2 2 0 012 2v12l-5-3-5 3V3z"/></symbol> <symbol viewBox="0 0 16 16" class="bi bi-bookmark-plus" fill="currentColor" id="bookmark-plus" xmlns="http://www.w3.org/2000/svg"><path fill-rule="evenodd" d="M4.5 2a.5.5 0 00-.5.5v11.066l4-2.667 4 2.667V8.5a.5.5 0 011 0v6.934l-5-3.333-5 3.333V2.5A1.5 1.5 0 014.5 1h4a.5.5 0 010 1h-4zm9-1a.5.5 0 01.5.5v2a.5.5 0 01-.5.5h-2a.5.5 0 010-1H13V1.5a.5.5 0 01.5-.5z"/><path fill-rule="evenodd" d="M13 3.5a.5.5 0 01.5-.5h2a.5.5 0 010 1H14v1.5a.5.5 0 01-1 0v-2z"/></symbol> <symbol viewBox="0 0 16 16" class="bi bi-bookmarks" fill="currentColor" id="bookmarks" xmlns="http://www.w3.org/2000/svg"><path fill-rule="evenodd" d="M7 13l5 3V4a2 2 0 00-2-2H4a2 2 0 00-2 2v12l5-3zm-4 1.234l4-2.4 4 2.4V4a1 1 0 00-1-1H4a1 1 0 00-1 1v10.234z"/><path d="M14 14l-1-.6V2a1 1 0 00-1-1H4.268A2 2 0 016 0h6a2 2 0 012 2v12z"/></symbol> <symbol viewBox="0 0 16 16" class="bi bi-bookmarks-fill" fill="currentColor" id="bookmarks-fill" xmlns="http://www.w3.org/2000/svg"><path fill-rule="evenodd" d="M2 4a2 2 0 012-2h6a2 2 0 012 2v12l-5-3-5 3V4z"/><path d="M14 14l-1-.6V2a1 1 0 00-1-1H4.268A2 2 0 016 0h6a2 2 0 012 2v12z"/></symbol> <symbol viewBox="0 0 16 16" class="bi bi-bookshelf" fill="currentColor" id="bookshelf" xmlns="http://www.w3.org/2000/svg"><path fill-rule="evenodd" d="M2.5 0a.5.5 0 01.5.5V2h10V.5a.5.5 0 011 0v15a.5.5 0 01-1 0V15H3v.5a.5.5 0 01-1 0V.5a.5.5 0 01.5-.5zM3 14h10v-3H3v3zm0-4h10V7H3v3zm0-4h10V3H3v3z"/></symbol> <symbol viewBox="0 0 16 16" class="bi bi-check-circle" fill="currentColor" id="check-circle" xmlns="http://www.w3.org/2000/svg"><path fill-rule="evenodd" d="M8 15A7 7 0 108 1a7 7 0 000 14zm0 1A8 8 0 108 0a8 8 0 000 16z"/><path fill-rule="evenodd" d="M10.97 4.97a.75.75 0 011.071 1.05l-3.992 4.99a.75.75 0 01-1.08.02L4.324 8.384a.75.75 0 111.06-1.06l2.094 2.093 3.473-4.425a.236.236 0 01.02-.022z"/></symbol> <symbol viewBox="0 0 16 16" class="bi bi-check-circle-fill" fill="currentColor" id="check-circle-fill" xmlns="http://www.w3.org/2000/svg"><path fill-rule="evenodd" d="M16 8A8 8 0 110 8a8 8 0 0116 0zm-3.97-3.03a.75.75 0 00-1.08.022L7.477 9.417 5.384 7.323a.75.75 0 00-1.06 1.06L6.97 11.03a.75.75 0 001.079-.02l3.992-4.99a.75.75 0 00-.01-1.05z"/></symbol> <symbol viewBox="0 0 16 16" class="bi bi-check2-circle" fill="currentColor" id="check2-circle" xmlns="http://www.w3.org/2000/svg"><path fill-rule="evenodd" d="M15.354 2.646a.5.5 0 010 .708l-7 7a.5.5 0 01-.708 0l-3-3a.5.5 0 11.708-.708L8 9.293l6.646-6.647a.5.5 0 01.708 0z"/><path fill-rule="evenodd" d="M8 2.5A5.5 5.5 0 1013.5 8a.5.5 0 011 0 6.5 6.5 0 11-3.25-5.63.5.5 0 11-.5.865A5.472 5.472 0 008 2.5z"/></symbol> <symbol viewBox="0 0 16 16" class="bi bi-circle" fill="currentColor" id="circle" xmlns="http://www.w3.org/2000/svg"><path fill-rule="evenodd" d="M8 15A7 7 0 108 1a7 7 0 000 14zm0 1A8 8 0 108 0a8 8 0 000 16z"/></symbol> <symbol viewBox="0 0 16 16" class="bi bi-circle-fill" fill="currentColor" id="circle-fill" xmlns="http://www.w3.org/2000/svg"><circle cx="8" cy="8" r="8"/></symbol> <symbol viewBox="0 0 16 16" class="bi bi-circle-half" fill="currentColor" id="circle-half" xmlns="http://www.w3.org/2000/svg"><path fill-rule="evenodd" d="M8 15V1a7 7 0 110 14zm0 1A8 8 0 118 0a8 8 0 010 16z"/></symbol> <symbol viewBox="0 0 16 16" class="bi bi-circle-square" fill="currentColor" id="circle-square" xmlns="http://www.w3.org/2000/svg"><path d="M0 6a6 6 0 1112 0A6 6 0 010 6z"/><path d="M12.93 5h1.57a.5.5 0 01.5.5v9a.5.5 0 01-.5.5h-9a.5.5 0 01-.5-.5v-1.57a6.953 6.953 0 01-1-.22v1.79A1.5 1.5 0 005.5 16h9a1.5 1.5 0 001.5-1.5v-9A1.5 1.5 0 0014.5 4h-1.79c.097.324.17.658.22 1z"/></symbol> <symbol viewBox="0 0 16 16" class="bi bi-dash-circle" fill="currentColor" id="dash-circle" xmlns="http://www.w3.org/2000/svg"><path fill-rule="evenodd" d="M8 15A7 7 0 108 1a7 7 0 000 14zm0 1A8 8 0 108 0a8 8 0 000 16z"/><path fill-rule="evenodd" d="M3.5 8a.5.5 0 01.5-.5h8a.5.5 0 010 1H4a.5.5 0 01-.5-.5z"/></symbol> <symbol viewBox="0 0 16 16" class="bi bi-dash-circle-fill" fill="currentColor" id="dash-circle-fill" xmlns="http://www.w3.org/2000/svg"><path fill-rule="evenodd" d="M16 8A8 8 0 110 8a8 8 0 0116 0zM4 7.5a.5.5 0 000 1h8a.5.5 0 000-1H4z"/></symbol> <symbol viewBox="0 0 16 16" class="bi bi-exclamation-circle" fill="currentColor" id="exclamation-circle" xmlns="http://www.w3.org/2000/svg"><path fill-rule="evenodd" d="M8 15A7 7 0 108 1a7 7 0 000 14zm0 1A8 8 0 108 0a8 8 0 000 16z"/><path d="M7.002 11a1 1 0 112 0 1 1 0 01-2 0zM7.1 4.995a.905.905 0 111.8 0l-.35 3.507a.552.552 0 01-1.1 0L7.1 4.995z"/></symbol> <symbol viewBox="0 0 16 16" class="bi bi-exclamation-circle-fill" fill="currentColor" id="exclamation-circle-fill" xmlns="http://www.w3.org/2000/svg"><path fill-rule="evenodd" d="M16 8A8 8 0 110 8a8 8 0 0116 0zM8 4a.905.905 0 00-.9.995l.35 3.507a.552.552 0 001.1 0l.35-3.507A.905.905 0 008 4zm.002 6a1 1 0 100 2 1 1 0 000-2z"/></symbol> <symbol viewBox="0 0 16 16" class="bi bi-filter-circle" fill="currentColor" id="filter-circle" xmlns="http://www.w3.org/2000/svg"><path fill-rule="evenodd" d="M8 15A7 7 0 108 1a7 7 0 000 14zm0 1A8 8 0 108 0a8 8 0 000 16z"/><path fill-rule="evenodd" d="M7 11.5a.5.5 0 01.5-.5h1a.5.5 0 010 1h-1a.5.5 0 01-.5-.5zm-2-3a.5.5 0 01.5-.5h5a.5.5 0 010 1h-5a.5.5 0 01-.5-.5zm-2-3a.5.5 0 01.5-.5h9a.5.5 0 010 1h-9a.5.5 0 01-.5-.5z"/></symbol> <symbol viewBox="0 0 16 16" class="bi bi-filter-circle-fill" fill="currentColor" id="filter-circle-fill" xmlns="http://www.w3.org/2000/svg"><path fill-rule="evenodd" d="M8 16A8 8 0 108 0a8 8 0 000 16zM3.5 5a.5.5 0 000 1h9a.5.5 0 000-1h-9zM5 8.5a.5.5 0 01.5-.5h5a.5.5 0 010 1h-5a.5.5 0 01-.5-.5zm2 3a.5.5 0 01.5-.5h1a.5.5 0 010 1h-1a.5.5 0 01-.5-.5z"/></symbol> <symbol viewBox="0 0 16 16" class="bi bi-info" fill="currentColor" id="info" xmlns="http://www.w3.org/2000/svg"><path d="M8.93 6.588l-2.29.287-.082.38.45.083c.294.07.352.176.288.469l-.738 3.468c-.194.897.105 1.319.808 1.319.545 0 1.178-.252 1.465-.598l.088-.416c-.2.176-.492.246-.686.246-.275 0-.375-.193-.304-.533L8.93 6.588z"/><circle cx="8" cy="4.5" r="1"/></symbol> <symbol viewBox="0 0 16 16" class="bi bi-info-circle" fill="currentColor" id="info-circle" xmlns="http://www.w3.org/2000/svg"><path fill-rule="evenodd" d="M8 15A7 7 0 108 1a7 7 0 000 14zm0 1A8 8 0 108 0a8 8 0 000 16z"/><path d="M8.93 6.588l-2.29.287-.082.38.45.083c.294.07.352.176.288.469l-.738 3.468c-.194.897.105 1.319.808 1.319.545 0 1.178-.252 1.465-.598l.088-.416c-.2.176-.492.246-.686.246-.275 0-.375-.193-.304-.533L8.93 6.588z"/><circle cx="8" cy="4.5" r="1"/></symbol> <symbol viewBox="0 0 16 16" class="bi bi-info-circle-fill" fill="currentColor" id="info-circle-fill" xmlns="http://www.w3.org/2000/svg"><path fill-rule="evenodd" d="M8 16A8 8 0 108 0a8 8 0 000 16zm.93-9.412l-2.29.287-.082.38.45.083c.294.07.352.176.288.469l-.738 3.468c-.194.897.105 1.319.808 1.319.545 0 1.178-.252 1.465-.598l.088-.416c-.2.176-.492.246-.686.246-.275 0-.375-.193-.304-.533L8.93 6.588zM8 5.5a1 1 0 100-2 1 1 0 000 2z"/></symbol> <symbol viewBox="0 0 16 16" class="bi bi-info-square" fill="currentColor" id="info-square" xmlns="http://www.w3.org/2000/svg"><path fill-rule="evenodd" d="M14 1H2a1 1 0 00-1 1v12a1 1 0 001 1h12a1 1 0 001-1V2a1 1 0 00-1-1zM2 0a2 2 0 00-2 2v12a2 2 0 002 2h12a2 2 0 002-2V2a2 2 0 00-2-2H2z"/><path d="M8.93 6.588l-2.29.287-.082.38.45.083c.294.07.352.176.288.469l-.738 3.468c-.194.897.105 1.319.808 1.319.545 0 1.178-.252 1.465-.598l.088-.416c-.2.176-.492.246-.686.246-.275 0-.375-.193-.304-.533L8.93 6.588z"/><circle cx="8" cy="4.5" r="1"/></symbol> <symbol viewBox="0 0 16 16" class="bi bi-list-stars" fill="currentColor" id="list-stars" xmlns="http://www.w3.org/2000/svg"><path fill-rule="evenodd" d="M5 11.5a.5.5 0 01.5-.5h9a.5.5 0 010 1h-9a.5.5 0 01-.5-.5zm0-4a.5.5 0 01.5-.5h9a.5.5 0 010 1h-9a.5.5 0 01-.5-.5zm0-4a.5.5 0 01.5-.5h9a.5.5 0 010 1h-9a.5.5 0 01-.5-.5z"/><path d="M2.242 2.194a.27.27 0 01.516 0l.162.53c.035.115.14.194.258.194h.551c.259 0 .37.333.164.493l-.468.363a.277.277 0 00-.094.3l.173.569c.078.256-.213.462-.423.3l-.417-.324a.267.267 0 00-.328 0l-.417.323c-.21.163-.5-.043-.423-.299l.173-.57a.277.277 0 00-.094-.299l-.468-.363c-.206-.16-.095-.493.164-.493h.55a.271.271 0 00.259-.194l.162-.53zm0 4a.27.27 0 01.516 0l.162.53c.035.115.14.194.258.194h.551c.259 0 .37.333.164.493l-.468.363a.277.277 0 00-.094.3l.173.569c.078.255-.213.462-.423.3l-.417-.324a.267.267 0 00-.328 0l-.417.323c-.21.163-.5-.043-.423-.299l.173-.57a.277.277 0 00-.094-.299l-.468-.363c-.206-.16-.095-.493.164-.493h.55a.271.271 0 00.259-.194l.162-.53zm0 4a.27.27 0 01.516 0l.162.53c.035.115.14.194.258.194h.551c.259 0 .37.333.164.493l-.468.363a.277.277 0 00-.094.3l.173.569c.078.255-.213.462-.423.3l-.417-.324a.267.267 0 00-.328 0l-.417.323c-.21.163-.5-.043-.423-.299l.173-.57a.277.277 0 00-.094-.299l-.468-.363c-.206-.16-.095-.493.164-.493h.55a.271.271 0 00.259-.194l.162-.53z"/></symbol> <symbol viewBox="0 0 16 16" class="bi bi-plus-circle" fill="currentColor" id="plus-circle" xmlns="http://www.w3.org/2000/svg"><path fill-rule="evenodd" d="M8 3.5a.5.5 0 01.5.5v4a.5.5 0 01-.5.5H4a.5.5 0 010-1h3.5V4a.5.5 0 01.5-.5z"/><path fill-rule="evenodd" d="M7.5 8a.5.5 0 01.5-.5h4a.5.5 0 010 1H8.5V12a.5.5 0 01-1 0V8z"/><path fill-rule="evenodd" d="M8 15A7 7 0 108 1a7 7 0 000 14zm0 1A8 8 0 108 0a8 8 0 000 16z"/></symbol> <symbol viewBox="0 0 16 16" class="bi bi-plus-circle-fill" fill="currentColor" id="plus-circle-fill" xmlns="http://www.w3.org/2000/svg"><path fill-rule="evenodd" d="M16 8A8 8 0 110 8a8 8 0 0116 0zM8.5 4a.5.5 0 00-1 0v3.5H4a.5.5 0 000 1h3.5V12a.5.5 0 001 0V8.5H12a.5.5 0 000-1H8.5V4z"/></symbol> <symbol viewBox="0 0 16 16" class="bi bi-question-circle" fill="currentColor" id="question-circle" xmlns="http://www.w3.org/2000/svg"><path fill-rule="evenodd" d="M8 15A7 7 0 108 1a7 7 0 000 14zm0 1A8 8 0 108 0a8 8 0 000 16z"/><path d="M5.25 6.033h1.32c0-.781.458-1.384 1.36-1.384.685 0 1.313.343 1.313 1.168 0 .635-.374.927-.965 1.371-.673.489-1.206 1.06-1.168 1.987l.007.463h1.307v-.355c0-.718.273-.927 1.01-1.486.609-.463 1.244-.977 1.244-2.056 0-1.511-1.276-2.241-2.673-2.241-1.326 0-2.786.647-2.754 2.533zm1.562 5.516c0 .533.425.927 1.01.927.609 0 1.028-.394 1.028-.927 0-.552-.42-.94-1.029-.94-.584 0-1.009.388-1.009.94z"/></symbol> <symbol viewBox="0 0 16 16" class="bi bi-question-circle-fill" fill="currentColor" id="question-circle-fill" xmlns="http://www.w3.org/2000/svg"><path fill-rule="evenodd" d="M16 8A8 8 0 110 8a8 8 0 0116 0zM6.57 6.033H5.25C5.22 4.147 6.68 3.5 8.006 3.5c1.397 0 2.673.73 2.673 2.24 0 1.08-.635 1.594-1.244 2.057-.737.559-1.01.768-1.01 1.486v.355H7.117l-.007-.463c-.038-.927.495-1.498 1.168-1.987.59-.444.965-.736.965-1.371 0-.825-.628-1.168-1.314-1.168-.901 0-1.358.603-1.358 1.384zm1.251 6.443c-.584 0-1.009-.394-1.009-.927 0-.552.425-.94 1.01-.94.609 0 1.028.388 1.028.94 0 .533-.42.927-1.029.927z"/></symbol> <symbol viewBox="0 0 16 16" class="bi bi-skip-start" fill="currentColor" id="skip-start" xmlns="http://www.w3.org/2000/svg"><path fill-rule="evenodd" d="M4.5 3.5A.5.5 0 004 4v8a.5.5 0 001 0V4a.5.5 0 00-.5-.5z"/><path fill-rule="evenodd" d="M5.696 8L11.5 4.633v6.734L5.696 8zm-.792-.696a.802.802 0 000 1.392l6.363 3.692c.52.302 1.233-.043 1.233-.696V4.308c0-.653-.713-.998-1.233-.696L4.904 7.304z"/></symbol> <symbol viewBox="0 0 16 16" class="bi bi-skip-start-fill" fill="currentColor" id="skip-start-fill" xmlns="http://www.w3.org/2000/svg"><path fill-rule="evenodd" d="M4.5 3.5A.5.5 0 004 4v8a.5.5 0 001 0V4a.5.5 0 00-.5-.5z"/><path d="M4.903 8.697l6.364 3.692c.54.313 1.232-.066 1.232-.697V4.308c0-.63-.692-1.01-1.232-.696L4.903 7.304a.802.802 0 000 1.393z"/></symbol> <symbol viewBox="0 0 16 16" class="bi bi-slash-circle" fill="currentColor" id="slash-circle" xmlns="http://www.w3.org/2000/svg"><path fill-rule="evenodd" d="M8 15A7 7 0 108 1a7 7 0 000 14zm0 1A8 8 0 108 0a8 8 0 000 16z"/><path fill-rule="evenodd" d="M11.854 4.146a.5.5 0 010 .708l-7 7a.5.5 0 01-.708-.708l7-7a.5.5 0 01.708 0z"/></symbol> <symbol viewBox="0 0 16 16" class="bi bi-slash-circle-fill" fill="currentColor" id="slash-circle-fill" xmlns="http://www.w3.org/2000/svg"><path fill-rule="evenodd" d="M16 8A8 8 0 110 8a8 8 0 0116 0zm-4.146-3.146a.5.5 0 00-.708-.708l-7 7a.5.5 0 00.708.708l7-7z"/></symbol> <symbol viewBox="0 0 16 16" class="bi bi-star" fill="currentColor" id="star" xmlns="http://www.w3.org/2000/svg"><path fill-rule="evenodd" d="M2.866 14.85c-.078.444.36.791.746.593l4.39-2.256 4.389 2.256c.386.198.824-.149.746-.592l-.83-4.73 3.523-3.356c.329-.314.158-.888-.283-.95l-4.898-.696L8.465.792a.513.513 0 00-.927 0L5.354 5.12l-4.898.696c-.441.062-.612.636-.283.95l3.523 3.356-.83 4.73zm4.905-2.767l-3.686 1.894.694-3.957a.565.565 0 00-.163-.505L1.71 6.745l4.052-.576a.525.525 0 00.393-.288l1.847-3.658 1.846 3.658a.525.525 0 00.393.288l4.052.575-2.906 2.77a.564.564 0 00-.163.506l.694 3.957-3.686-1.894a.503.503 0 00-.461 0z"/></symbol> <symbol viewBox="0 0 16 16" class="bi bi-star-fill" fill="currentColor" id="star-fill" xmlns="http://www.w3.org/2000/svg"><path d="M3.612 15.443c-.386.198-.824-.149-.746-.592l.83-4.73L.173 6.765c-.329-.314-.158-.888.283-.95l4.898-.696L7.538.792c.197-.39.73-.39.927 0l2.184 4.327 4.898.696c.441.062.612.636.283.95l-3.523 3.356.83 4.73c.078.443-.36.79-.746.592L8 13.187l-4.389 2.256z"/></symbol> <symbol viewBox="0 0 16 16" class="bi bi-star-half" fill="currentColor" id="star-half" xmlns="http://www.w3.org/2000/svg"><path fill-rule="evenodd" d="M5.354 5.119L7.538.792A.516.516 0 018 .5c.183 0 .366.097.465.292l2.184 4.327 4.898.696A.537.537 0 0116 6.32a.55.55 0 01-.17.445l-3.523 3.356.83 4.73c.078.443-.36.79-.746.592L8 13.187l-4.389 2.256a.519.519 0 01-.146.05c-.341.06-.668-.254-.6-.642l.83-4.73L.173 6.765a.55.55 0 01-.171-.403.59.59 0 01.084-.302.513.513 0 01.37-.245l4.898-.696zM8 12.027c.08 0 .16.018.232.056l3.686 1.894-.694-3.957a.564.564 0 01.163-.505l2.906-2.77-4.052-.576a.525.525 0 01-.393-.288L8.002 2.223 8 2.226v9.8z"/></symbol> <symbol viewBox="0 0 16 16" class="bi bi-x-circle" fill="currentColor" id="x-circle" xmlns="http://www.w3.org/2000/svg"><path fill-rule="evenodd" d="M8 15A7 7 0 108 1a7 7 0 000 14zm0 1A8 8 0 108 0a8 8 0 000 16z"/><path fill-rule="evenodd" d="M11.854 4.146a.5.5 0 010 .708l-7 7a.5.5 0 01-.708-.708l7-7a.5.5 0 01.708 0z"/><path fill-rule="evenodd" d="M4.146 4.146a.5.5 0 000 .708l7 7a.5.5 0 00.708-.708l-7-7a.5.5 0 00-.708 0z"/></symbol> </svg> 
