<?xml version="1.0" encoding="UTF-8" standalone="no"?>
<!DOCTYPE svg PUBLIC "-//W3C//DTD SVG 1.1//EN" "http://www.w3.org/Graphics/SVG/1.1/DTD/svg11.dtd">
<svg version="1.1" xmlns="http://www.w3.org/2000/svg" xmlns:xlink="http://www.w3.org/1999/xlink" preserveAspectRatio="xMidYMid meet" viewBox="0 0 640 640" width="640" height="640"><defs><path d="M267.79 0L274.7 0.01L281.57 0.02L288.41 0.04L295.2 0.05L301.92 0.07L308.58 0.09L315.15 0.11L321.64 0.13L328.02 0.15L334.3 0.18L340.46 0.2L346.49 0.23L352.39 0.25L358.13 0.27L363.72 0.3L369.14 0.32L374.39 0.34L379.44 0.36L384.31 0.38L388.96 0.4L393.4 0.41L397.61 0.42L401.59 0.43L405.32 0.43L408.8 0.44L415.97 0.57L423.06 0.97L430.07 1.62L437 2.53L443.84 3.69L450.58 5.09L457.22 6.72L463.75 8.6L470.18 10.69L476.48 13.01L482.66 15.55L488.71 18.3L494.62 21.25L500.39 24.41L506.02 27.77L511.5 31.31L516.82 35.04L521.97 38.96L526.96 43.04L531.77 47.3L536.4 51.73L540.85 56.31L545.1 61.05L549.16 65.94L553.01 70.98L556.66 76.15L560.09 81.46L563.31 86.9L566.3 92.46L569.06 98.14L571.58 103.94L573.86 109.84L575.9 115.85L577.68 121.96L579.2 128.16L580.46 134.45L581.45 140.82L582.16 147.27L582.59 153.79L582.74 160.37L582.59 166.96L582.16 173.48L581.45 179.93L580.46 186.3L579.2 192.59L577.68 198.79L575.9 204.9L573.86 210.91L571.58 216.81L569.06 222.61L566.3 228.29L563.31 233.85L560.09 239.29L556.66 244.6L553.01 249.77L549.16 254.81L545.1 259.7L540.85 264.44L536.4 269.02L531.77 273.45L526.96 277.71L521.97 281.79L516.82 285.71L511.5 289.44L506.02 292.98L500.39 296.34L494.62 299.5L488.71 302.45L482.66 305.2L476.48 307.74L470.18 310.06L463.75 312.15L457.22 314.03L450.58 315.66L443.84 317.06L437 318.22L430.07 319.13L429 319.23L434.27 319.52L441.29 320.18L448.21 321.09L455.05 322.24L461.79 323.64L468.43 325.28L474.97 327.15L481.39 329.25L487.69 331.57L493.87 334.11L499.92 336.86L505.83 339.81L511.61 342.97L517.23 346.32L522.71 349.87L528.03 353.6L533.18 357.51L538.17 361.6L542.98 365.86L547.61 370.28L552.06 374.87L556.31 379.61L560.37 384.5L564.23 389.53L567.87 394.71L571.31 400.02L574.52 405.46L577.51 411.02L580.27 416.7L582.79 422.5L585.08 428.4L587.11 434.41L588.89 440.52L590.41 446.72L591.67 453L592.66 459.37L593.37 465.82L593.8 472.34L593.95 478.93L593.8 485.52L593.37 492.04L592.66 498.49L591.67 504.86L590.41 511.15L588.89 517.35L587.11 523.45L585.08 529.46L582.79 535.37L580.27 541.16L577.51 546.84L574.52 552.41L571.31 557.85L567.87 563.16L564.23 568.33L560.37 573.36L556.31 578.25L552.06 582.99L547.61 587.58L542.98 592L538.17 596.26L533.18 600.35L528.03 604.26L522.71 608L517.23 611.54L511.61 614.89L505.83 618.05L499.92 621.01L493.87 623.76L487.69 626.29L481.39 628.61L474.97 630.71L468.43 632.58L461.79 634.22L455.05 635.62L448.21 636.78L441.29 637.69L434.27 638.34L427.18 638.74L420.02 638.87L416.91 638.87L413.76 638.87L410.57 638.87L407.33 638.88L404.03 638.88L400.66 638.88L397.21 638.89L393.67 638.9L390.03 638.9L386.29 638.91L382.44 638.92L378.46 638.93L374.36 638.95L370.11 638.96L365.71 638.97L361.15 638.99L356.43 639.01L351.53 639.03L346.45 639.05L341.17 639.07L335.7 639.1L330.01 639.13L324.1 639.15L317.96 639.19L311.59 639.22L304.97 639.25L298.09 639.29L290.95 639.33L283.54 639.37L275.85 639.41L267.87 639.46L259.59 639.51L251 639.56L242.09 639.61L232.86 639.67L223.3 639.73L213.39 639.79L203.13 639.86L192.51 639.92L181.52 639.99L170.69 639.86L167.06 639.66L167.06 640L51.9 640L51.9 0.44L167.06 0.44L173.27 0.37L179.59 0.3L186.01 0.25L192.54 0.2L199.14 0.15L205.83 0.12L212.58 0.09L219.38 0.06L226.23 0.04L233.12 0.02L240.04 0.01L246.98 0L253.92 0L260.86 0L267.79 0ZM364.92 563.81L369.19 563.45L373.41 562.95L377.57 562.32L381.68 561.55L385.72 560.66L389.7 559.63L393.61 558.49L397.45 557.22L401.21 555.83L404.89 554.33L408.49 552.71L412.01 550.99L415.43 549.15L418.77 547.22L422.01 545.18L425.14 543.04L428.18 540.8L431.11 538.47L433.93 536.06L436.64 533.55L439.23 530.96L441.7 528.28L444.04 525.53L446.27 522.7L448.36 519.8L450.31 516.83L452.13 513.79L453.81 510.68L455.35 507.51L456.74 504.28L457.98 501L459.06 497.66L459.99 494.27L460.75 490.83L461.36 487.35L461.79 483.83L462.05 480.26L462.14 476.66L462.05 473.06L461.79 469.49L461.36 465.97L460.75 462.49L459.99 459.05L459.06 455.66L457.98 452.32L456.74 449.04L455.35 445.81L453.81 442.64L452.13 439.53L450.31 436.49L448.36 433.52L446.27 430.62L444.04 427.79L441.7 425.04L439.23 422.36L436.64 419.77L433.93 417.27L431.11 414.85L428.18 412.52L425.14 410.28L422.01 408.14L418.77 406.1L415.43 404.17L412.01 402.33L408.49 400.61L404.89 398.99L401.21 397.49L397.45 396.1L393.61 394.83L389.7 393.69L385.72 392.66L381.68 391.77L377.57 391L373.41 390.37L369.19 389.87L364.92 389.52L360.6 389.3L356.24 389.23L183.71 389.23L183.71 564.1L356.24 564.1L356.24 564.1L360.6 564.02L364.92 563.81ZM356.24 252.12L356.24 252.12L360.6 252.04L364.92 251.83L369.19 251.47L373.41 250.97L377.57 250.34L381.68 249.57L385.72 248.68L389.7 247.66L393.61 246.51L397.45 245.24L401.21 243.85L404.89 242.35L408.49 240.73L412.01 239.01L415.43 237.18L418.77 235.24L422.01 233.2L425.14 231.06L428.18 228.82L431.11 226.49L433.93 224.08L436.64 221.57L439.23 218.98L441.7 216.31L444.04 213.55L446.27 210.72L448.36 207.82L450.31 204.85L452.13 201.81L453.81 198.7L455.35 195.53L456.74 192.3L457.98 189.02L459.06 185.68L459.99 182.29L460.75 178.86L461.36 175.37L461.79 171.85L462.05 168.28L462.14 164.68L462.05 161.08L461.79 157.51L461.36 153.99L460.75 150.51L459.99 147.07L459.06 143.68L457.98 140.34L456.74 137.06L455.35 133.83L453.81 130.66L452.13 127.55L450.31 124.51L448.36 121.54L446.27 118.64L444.04 115.81L441.7 113.06L439.23 110.38L436.64 107.79L433.93 105.29L431.11 102.87L428.18 100.54L425.14 98.3L422.01 96.17L418.77 94.13L415.43 92.19L412.01 90.35L408.49 88.63L404.89 87.01L401.21 85.51L397.45 84.12L393.61 82.85L389.7 81.71L385.72 80.68L381.68 79.79L377.57 79.02L373.41 78.39L369.19 77.89L364.92 77.54L360.6 77.32L356.24 77.25L183.71 77.25L183.71 252.12L356.24 252.12Z" id="c1huYQmttd"></path><radialGradient id="gradienta1GiUpr3Hy" gradientUnits="userSpaceOnUse" cx="346.41" cy="420.32" dx="346.41" dy="1060.32" r="640"><stop style="stop-color: #3f3ec2;stop-opacity: 1" offset="0%"></stop><stop style="stop-color: #010000;stop-opacity: 1" offset="100%"></stop></radialGradient></defs><g><g><g><use xlink:href="#c1huYQmttd" opacity="1" fill="url(#gradienta1GiUpr3Hy)"></use></g></g></g></svg>